<?xml version="1.0" encoding="UTF-8"?><svg id="Layer_1" xmlns="http://www.w3.org/2000/svg" viewBox="0 0 971 970.9"><g id="Layer_1-2"><path d="m971,104c0-57.5-46.6-104-104-104H104C46.5,0,0,46.6,0,104v762.9c0,57.5,46.6,104,104,104h762.9c57.5,0,104-46.6,104-104l.1-762.9h0Zm-69.4,0v762.9c0,19.1-15.5,34.7-34.7,34.7H104c-19.1,0-34.7-15.5-34.7-34.7V104c0-19.1,15.5-34.7,34.7-34.7h762.9c19.2.1,34.7,15.6,34.7,34.7h0Zm-450.8,609.9l-183.5-183.6c-13.5-13.5-35.5-13.5-49,0s-13.5,35.5,0,49l218.2,218.3c27.1,27.1,71,27.1,98.1,0l218.2-218.2c13.5-13.5,13.5-35.5,0-49s-35.5-13.5-49,0l-183.6,183.5V173.4c0-19.1-15.5-34.7-34.7-34.7s-34.7,15.5-34.7,34.7v540.5h0Z" style="fill:#bdeeff; fill-rule:evenodd;"/></g></svg>