<?xml version="1.0" encoding="UTF-8"?><svg id="Layer_1" xmlns="http://www.w3.org/2000/svg" viewBox="0 0 972 972"><path d="m961.77,409.23c5.19-5.19,8.65-13.84,8.65-22.49s-3.46-17.3-8.65-22.49L681.5,83.98h0l-74.39-74.39c-12.11-12.11-32.87-12.11-44.98,0L46.56,525.14c-29.41,29.41-44.98,69.2-44.98,110.72s15.57,79.58,44.98,108.99l179.93,179.93c5.19,5.19,8.65,8.65,13.84,12.11H105.39c-8.65,0-17.3,6.92-17.3,17.3s6.92,17.3,17.3,17.3h833.89c8.65,0,17.3-6.92,17.3-17.3s-6.92-17.3-17.3-17.3h-506.91c5.19-3.46,8.65-6.92,13.84-12.11L961.77,409.23Zm-429.06,380.61l-60.55-62.28,403.11-403.11,60.55,60.55-403.11,404.84Zm318.33-487.88l-403.11,403.11-181.66-181.66L669.39,120.31l181.66,181.66ZM584.61,35.53l60.55,60.55L243.79,499.19l-60.55-60.55L584.61,35.53ZM70.78,720.64c-22.49-22.49-36.33-53.63-36.33-86.5s12.11-62.28,36.33-86.5l88.23-88.23,72.66,72.66h0l278.54,278.54-88.23,89.96c-46.71,46.71-124.56,46.71-171.28,0l-179.93-179.93Z" style="fill:#bdeeff;"/></svg>