<?xml version="1.0" encoding="UTF-8"?><svg id="Layer_1" xmlns="http://www.w3.org/2000/svg" viewBox="0 0 971 971.1"><g id="Layer_1-2"><g><path d="m97.1,485.5c0-214.5,173.9-388.4,388.4-388.4,98.5,0,188.4,36.6,256.9,97.1h-87c-26.8,0-48.5,21.7-48.5,48.5s21.7,48.6,48.5,48.6h194.2c26.8,0,48.6-21.7,48.6-48.6V48.6c0-26.8-21.7-48.5-48.6-48.5s-48.5,21.7-48.5,48.5v68C716.2,43.9,606,0,485.5,0,217.4,0,0,217.4,0,485.5c0,26.8,21.7,48.5,48.5,48.5s48.6-21.7,48.6-48.5Z" style="fill:#bdeeff;"/><path d="m922.5,436.9c-26.8,0-48.6,21.7-48.6,48.6,0,214.5-173.9,388.4-388.4,388.4-98.5,0-188.4-36.6-256.9-97.1h87c26.8,0,48.5-21.7,48.5-48.5s-21.7-48.5-48.5-48.5H121.4c-26.8,0-48.6,21.7-48.6,48.5v194.2c0,26.8,21.7,48.6,48.6,48.6s48.5-21.7,48.5-48.6v-68c84.8,72.6,195.1,116.6,315.6,116.6,268.1,0,485.5-217.4,485.5-485.5,0-26.9-21.7-48.7-48.5-48.7h0Z" style="fill:#bdeeff;"/></g></g></svg>