<?xml version="1.0" encoding="UTF-8"?><svg id="Layer_1" xmlns="http://www.w3.org/2000/svg" viewBox="0 0 972 972"><g id="Layer_1-2"><path d="m404.1,418.7c-24.1-40.1-48.8-79-76.3-113.3C257.6,217.8,169.6,158.8,31.1,175.3c-19,2.3-32.6,19.5-30.3,38.5s19.5,32.6,38.5,30.3c109.8-13,178.8,35.3,234.5,104.6,32.8,41,61.2,88.9,89.7,137.3-28.5,48.4-56.9,96.3-89.7,137.3-55.6,69.4-124.7,117.6-234.5,104.6-19-2.3-36.3,11.3-38.5,30.3-2.3,19,11.3,36.3,30.3,38.5,138.6,16.4,226.6-42.6,296.7-130.1,27.5-34.3,52.2-73.2,76.3-113.3,54.4,86.7,116.3,165,206.4,203.7,55.9,24,122.9,33.5,206.1,19.6l-39.3,29.4c-15.3,11.5-18.4,33.3-6.9,48.5,11.5,15.3,33.2,18.4,48.6,6.9l138.7-104c8.7-6.6,13.9-16.8,13.9-27.7s-5.1-21.2-13.9-27.7l-138.7-104c-15.3-11.5-37.1-8.4-48.6,6.9-11.5,15.3-8.4,37.1,6.9,48.5l63.3,47.4c-84.1,20.4-149.5,15.3-202.7-7.6-87.7-37.7-141.9-121.1-193.5-207l-.2-.4.2-.4c51.6-85.9,105.8-169.3,193.5-207,53.2-22.9,118.6-28,202.7-7.6l-63.3,47.4c-15.3,11.5-18.4,33.2-6.9,48.5s33.2,18.4,48.6,6.9l138.7-104c8.7-6.6,13.9-16.8,13.9-27.7s-5.1-21.2-13.9-27.7l-138.7-104c-15.3-11.5-37.1-8.4-48.6,6.9s-8.4,37.1,6.9,48.5l39.3,29.5c-83.3-13.9-150.2-4.4-206.1,19.6-90.1,39-152,117.3-206.4,204Z" style="fill:#bdeeff; fill-rule:evenodd;"/></g></svg>